<svg width="370" height="326" viewBox="0 0 370 326" fill="none" xmlns="http://www.w3.org/2000/svg">
<circle cx="82.5143" cy="82.5144" r="60.4047" transform="rotate(-30 82.5143 82.5144)" fill="#2CD9FF"/>
<path d="M57.321 99.2489L52.1929 102.21L55.0856 107.22L51.2837 109.415L48.3911 104.405L43.2925 107.348L41.2167 103.753L46.3152 100.809L43.4226 95.7989L47.2244 93.6039L50.1171 98.614L55.2451 95.6534L57.321 99.2489ZM64.8122 89.1081C67.7201 87.4293 70.1963 86.7724 72.2409 87.1376C74.3052 87.4914 75.8988 88.6409 77.0218 90.586C77.7478 91.8434 78.0971 93.1743 78.0695 94.5786C78.0307 95.9633 77.5444 97.3444 76.6106 98.7218C75.6852 100.068 74.2794 101.286 72.3932 102.375C70.9393 103.214 69.3972 103.856 67.767 104.299C66.1452 104.712 64.6389 104.848 63.2481 104.708L63.0244 99.9642C64.1506 100.1 65.321 100.04 66.5355 99.7839C67.7387 99.5084 68.8806 99.0587 69.9612 98.4348C71.1597 97.7428 71.9667 96.9626 72.3821 96.094C72.7975 95.2254 72.7614 94.3687 72.2736 93.5239C71.7631 92.6397 71.0139 92.1816 70.0261 92.1494C69.0579 92.1058 67.6896 92.5945 65.9213 93.6155L60.6459 96.6612L55.0028 84.4369L67.5872 77.1713L69.7992 81.0026L61.1935 85.9711L63.1323 90.078L64.8122 89.1081ZM91.7479 91.2004C90.0386 92.1873 88.272 92.644 86.4482 92.5705C84.6244 92.497 82.8699 91.8857 81.1848 90.7367C79.508 89.5566 78.0287 87.8565 76.7469 85.6363C75.4651 83.4161 74.738 81.2948 74.5658 79.2723C74.4019 77.2187 74.7441 75.3839 75.5924 73.7677C76.4406 72.1514 77.7194 70.8499 79.4288 69.863C81.1381 68.8761 82.9047 68.4194 84.7285 68.4929C86.5524 68.5664 88.3027 69.1931 89.9794 70.3732C91.6645 71.5223 93.148 73.2069 94.4298 75.4271C95.7116 77.6473 96.4345 79.7841 96.5984 81.8376C96.7707 83.8601 96.4326 85.6795 95.5844 87.2957C94.7361 88.9119 93.4573 90.2135 91.7479 91.2004ZM89.4168 87.1628C90.6743 86.4368 91.3447 85.3293 91.4281 83.8403C91.5312 82.34 90.9305 80.4601 89.626 78.2006C88.3214 75.9411 86.9938 74.4809 85.6429 73.82C84.3117 73.1477 83.0173 73.1746 81.7599 73.9006C80.5221 74.6152 79.8517 75.7227 79.7486 77.2231C79.6652 78.7121 80.2757 80.5863 81.5802 82.8458C82.8847 85.1053 84.2026 86.5711 85.5338 87.2434C86.8847 87.9043 88.179 87.8774 89.4168 87.1628ZM122.775 72.8153L115.599 60.4543L115.415 74.1566L113.264 75.3987L101.488 68.955L108.481 81.0678L104.002 83.6541L92.0909 63.0241L96.0401 60.744L111.163 69.1061L111.365 51.896L115.285 49.6329L127.255 70.229L122.775 72.8153Z" fill="black"/>
<circle cx="318.043" cy="146.043" r="37.3657" transform="rotate(-30 318.043 146.043)" fill="black"/>
<circle cx="331.157" cy="126.292" r="4.6923" transform="rotate(8.16555 331.157 126.292)" fill="white"/>
<circle cx="335.163" cy="158.641" r="4.6923" transform="rotate(10.2022 335.163 158.641)" fill="white"/>
<circle cx="316.442" cy="155.942" r="4.6923" stroke="white"/>
<path d="M318.931 152.032L329.828 128.945" stroke="white"/>
<path d="M321.142 157.071L333.149 159.232" stroke="white"/>
<circle cx="301.385" cy="144.638" r="4.6923" transform="rotate(-180 301.385 144.638)" fill="white"/>
<path d="M312.408 152.547L302.366 145.619" stroke="white"/>
<circle cx="125.5" cy="303.5" r="22.5" fill="#D9D9D9"/>
</svg>
