<svg width="28" height="28" viewBox="0 0 28 28" fill="none" xmlns="http://www.w3.org/2000/svg">
<path d="M14 0.875C6.75195 0.875 0.875 6.9043 0.875 14.334C0.875 20.2813 4.63672 25.3203 9.85156 27.1016C9.92471 27.1175 9.99937 27.1253 10.0742 27.125C10.5605 27.125 10.748 26.7676 10.748 26.457C10.748 26.1348 10.7363 25.291 10.7305 24.166C10.2963 24.2678 9.85216 24.3209 9.40625 24.3242C6.88086 24.3242 6.30664 22.3613 6.30664 22.3613C5.70898 20.8086 4.84766 20.3926 4.84766 20.3926C3.70508 19.5898 4.8418 19.5664 4.92969 19.5664H4.93555C6.25391 19.6836 6.94531 20.9609 6.94531 20.9609C7.60156 22.1094 8.48047 22.4316 9.26562 22.4316C9.78479 22.4213 10.2959 22.3015 10.7656 22.0801C10.8828 21.2129 11.2227 20.6211 11.5977 20.2813C8.68555 19.9414 5.62109 18.7871 5.62109 13.6309C5.62109 12.1602 6.13086 10.959 6.96875 10.0215C6.83398 9.68164 6.38281 8.31055 7.09766 6.45898C7.19354 6.43604 7.29209 6.42619 7.39062 6.42969C7.86523 6.42969 8.9375 6.61133 10.707 7.8418C12.8572 7.24022 15.1311 7.24022 17.2812 7.8418C19.0508 6.61133 20.123 6.42969 20.5977 6.42969C20.6962 6.42619 20.7947 6.43604 20.8906 6.45898C21.6055 8.31055 21.1543 9.68164 21.0195 10.0215C21.8574 10.9648 22.3672 12.166 22.3672 13.6309C22.3672 18.7988 19.2969 19.9355 16.373 20.2695C16.8418 20.6855 17.2637 21.5059 17.2637 22.7598C17.2637 24.5586 17.2461 26.0117 17.2461 26.4512C17.2461 26.7676 17.4277 27.125 17.9141 27.125C17.9928 27.1253 18.0713 27.1175 18.1484 27.1016C23.3691 25.3203 27.125 20.2754 27.125 14.334C27.125 6.9043 21.248 0.875 14 0.875Z" fill="black"/>
</svg>
