<svg width="30" height="30" viewBox="0 0 30 30" fill="none" xmlns="http://www.w3.org/2000/svg">
<circle cx="15" cy="15" r="15" fill="#2CD9FF"/>
<path d="M12.3384 10.8C13.5515 10.9816 16.3635 10.9598 17.0993 12.4397C17.6723 13.5921 16.3585 15.4772 15.7018 16.2339C15.3714 16.6145 14.2477 17.6368 13.4161 17.6107C12.9656 17.5966 12.8497 16.9664 12.9068 16.7278C13.3082 15.053 15.552 13.8661 17.1466 13.2384C18.1702 12.8355 20.2482 12.1526 21.1851 13.1438C22.1705 14.1862 22.0728 16.2988 21.8602 17.5266C21.5868 19.1051 20.6779 20.758 19.0415 21.5626C17.2273 22.4546 15.2808 21.7917 13.4871 21.2578C12.3092 20.9071 11.3011 20.6911 10.1 20.5431" stroke="black" stroke-linecap="round"/>
<circle cx="10.45" cy="10.45" r="2.45" fill="black"/>
</svg>
