<svg width="105" height="113" viewBox="0 0 105 113" fill="none" xmlns="http://www.w3.org/2000/svg">
<circle cx="50" cy="62.4106" r="50" fill="#124074"/>
<path d="M18.4519 45.4413C15.7388 50.4187 14.2223 55.9595 14.0226 61.6248C13.823 67.29 14.9456 72.9239 17.3015 78.0799C19.6574 83.2359 23.1819 87.7723 27.5956 91.3295C32.0094 94.8868 37.191 97.3671 42.7298 98.5738C48.2686 99.7806 54.0124 99.6807 59.5059 98.282C64.9994 96.8833 70.0916 94.2243 74.3789 90.5157C78.6662 86.8071 82.0308 82.1509 84.206 76.9161C86.3812 71.6813 87.3072 66.0117 86.9106 60.3569" stroke="white"/>
<path d="M25.3885 43.5757C24.6845 44.3101 23.89 44.822 23.005 45.1113C22.1264 45.394 21.2494 45.4389 20.374 45.2462C19.4983 45.0403 18.7134 44.6047 18.0195 43.9394C17.3255 43.2742 16.8605 42.5117 16.6245 41.6519C16.3882 40.779 16.3926 39.8976 16.6379 39.0079C16.8895 38.1114 17.3674 37.296 18.0714 36.5616C18.7754 35.8271 19.5667 35.3186 20.4452 35.036C21.3238 34.7534 22.2042 34.7117 23.0864 34.9108C23.9618 35.1036 24.7465 35.5326 25.4405 36.1978C26.1344 36.863 26.5996 37.6321 26.8359 38.5051C27.0654 39.3716 27.0576 40.2497 26.8124 41.1395C26.5671 42.0292 26.0925 42.8413 25.3885 43.5757ZM23.9938 42.2387C24.3943 41.821 24.6616 41.3533 24.7959 40.8355C24.9234 40.3113 24.9058 39.7902 24.743 39.2722C24.5867 38.7474 24.2896 38.2751 23.8516 37.8553C23.4137 37.4355 22.9292 37.1586 22.3983 37.0246C21.8739 36.8838 21.3558 36.8915 20.8442 37.0475C20.3259 37.1971 19.8665 37.4808 19.4661 37.8985C19.0657 38.3162 18.8017 38.7872 18.6741 39.3114C18.5398 39.8291 18.5509 40.3504 18.7072 40.8752C18.87 41.3932 19.1703 41.8621 19.6083 42.282C20.0462 42.7018 20.5274 42.982 21.0519 43.1228C21.5828 43.2568 22.1075 43.249 22.6258 43.0994C23.1374 42.9434 23.5934 42.6565 23.9938 42.2387Z" fill="white"/>
<path d="M31.3524 28.7435C32.0025 28.484 32.6525 28.4003 33.3024 28.4926C33.9574 28.5727 34.5457 28.8253 35.0671 29.2502C35.5851 29.6665 35.9877 30.2344 36.2749 30.9538C36.5622 31.6733 36.6631 32.3666 36.5778 33.0338C36.4889 33.6924 36.2364 34.2806 35.8201 34.7986C35.409 35.3044 34.8785 35.6871 34.2284 35.9466C33.3356 36.3031 32.521 36.3017 31.7846 35.9425L33.0876 39.206L31.0593 40.0158L27.2593 30.4984L29.1966 29.7249L29.5185 30.531C29.7789 29.7235 30.3903 29.1277 31.3524 28.7435ZM33.2128 34.4225C33.7329 34.2149 34.0884 33.872 34.2794 33.3937C34.4755 32.9034 34.4559 32.3635 34.2206 31.7741C33.9853 31.1846 33.6293 30.784 33.1529 30.5723C32.6816 30.3484 32.1859 30.3403 31.6658 30.548C31.1458 30.7556 30.7876 31.1046 30.5915 31.595C30.4005 32.0732 30.4227 32.607 30.6581 33.1965C30.8934 33.7859 31.2467 34.1925 31.718 34.4164C32.1945 34.6281 32.6927 34.6302 33.2128 34.4225Z" fill="white"/>
<path d="M47.0379 29.7789C47.0377 29.8069 47.0224 30.0028 46.9919 30.3666L41.294 30.3279C41.3935 30.7953 41.6337 31.1656 42.0145 31.4389C42.3953 31.7121 42.8704 31.8507 43.4397 31.8545C43.8317 31.8572 44.1774 31.8036 44.4768 31.6936C44.7857 31.5743 45.0716 31.3896 45.3346 31.1394L46.488 32.4073C45.7732 33.2144 44.7345 33.6134 43.3718 33.6041C42.5225 33.5984 41.7723 33.4299 41.1212 33.0988C40.4702 32.7584 39.9693 32.293 39.6187 31.7026C39.268 31.1122 39.0952 30.4437 39.1003 29.697C39.1053 28.9597 39.2825 28.2982 39.6318 27.7126C39.9905 27.1177 40.4743 26.6589 41.0832 26.3364C41.7014 26.0046 42.3886 25.8413 43.1445 25.8464C43.8819 25.8514 44.5481 26.0146 45.1433 26.336C45.7384 26.6574 46.202 27.1179 46.5339 27.7175C46.8752 28.3078 47.0432 28.995 47.0379 29.7789ZM43.1473 27.4985C42.6527 27.4951 42.2364 27.6323 41.8985 27.91C41.5606 28.1877 41.3527 28.569 41.2747 29.0538L44.9846 29.079C44.9132 28.6025 44.7104 28.2231 44.3763 27.9408C44.0423 27.6492 43.6326 27.5018 43.1473 27.4985Z" fill="white"/>
<path d="M55.4015 25.0552C56.3283 25.1652 57.0413 25.5319 57.5407 26.1551C58.0492 26.7795 58.2386 27.6385 58.1087 28.7321L57.6002 33.014L55.4314 32.7564L55.9003 28.8082C55.9708 28.215 55.8933 27.7594 55.6679 27.4412C55.4436 27.1138 55.0859 26.921 54.5947 26.8626C54.0478 26.7977 53.5919 26.9174 53.2268 27.2218C52.8627 27.5169 52.6411 27.9981 52.5619 28.6655L52.1226 32.3635L49.9539 32.1059L50.8422 24.6265L52.9136 24.8725L52.8096 25.7483C53.1344 25.4673 53.5198 25.2687 53.966 25.1525C54.4132 25.0271 54.8917 24.9946 55.4015 25.0552Z" fill="white"/>
<path d="M72.1038 37.4061L68.6429 34.4524L66.6194 35.4862L64.8517 33.9775L74.5361 29.3589L76.2399 30.813L73.2111 41.112L71.4008 39.5669L72.1038 37.4061ZM72.6786 35.6328L73.9323 31.7701L70.3146 33.6152L72.6786 35.6328Z" fill="white"/>
<path d="M84.0902 43.3823C84.3953 44.0123 84.5249 44.6547 84.479 45.3095C84.4456 45.9686 84.2355 46.5733 83.8486 47.1236C83.4702 47.6698 82.9324 48.1117 82.2351 48.4494C81.5379 48.787 80.8535 48.9369 80.1819 48.8992C79.5187 48.8574 78.914 48.6473 78.3678 48.2688C77.8341 47.8947 77.4147 47.3926 77.1096 46.7626C76.6906 45.8974 76.6341 45.0848 76.9401 44.3247L73.7775 45.8563L72.8256 43.8906L82.0491 39.4242L82.9582 41.3016L82.177 41.68C83.0009 41.8824 83.6387 42.4499 84.0902 43.3823ZM78.5577 45.6414C78.8018 46.1454 79.1691 46.4757 79.6597 46.6322C80.1627 46.793 80.6999 46.7351 81.2711 46.4585C81.8423 46.1819 82.2166 45.7984 82.394 45.3081C82.5838 44.8221 82.5567 44.3271 82.3126 43.8231C82.0685 43.3191 81.695 42.9867 81.1919 42.8258C80.7013 42.6693 80.1704 42.7294 79.5992 43.006C79.028 43.2826 78.6475 43.6639 78.4576 44.1499C78.2803 44.6402 78.3136 45.1374 78.5577 45.6414Z" fill="white"/>
<path d="M88.4963 54.6308C88.7689 55.2755 88.8656 55.9237 88.7864 56.5753C88.7195 57.2319 88.4788 57.8251 88.0644 58.3549C87.6586 58.8811 87.099 59.2951 86.3854 59.5967C85.6719 59.8984 84.9808 60.0133 84.312 59.9413C83.6518 59.8658 83.0586 59.6251 82.5324 59.2193C82.0184 58.8185 81.6251 58.2957 81.3525 57.651C80.9782 56.7655 80.9632 55.9511 81.3075 55.2076L78.0709 56.576L77.2204 54.5644L86.6595 50.5738L87.4718 52.4951L86.6723 52.8331C87.4849 53.0773 88.0929 53.6766 88.4963 54.6308ZM82.8559 56.605C83.0739 57.1208 83.424 57.4694 83.9059 57.6506C84.4001 57.8369 84.9395 57.8065 85.5241 57.5593C86.1087 57.3122 86.502 56.9483 86.7041 56.4676C86.9185 55.992 86.9166 55.4962 86.6986 54.9804C86.4805 54.4646 86.1244 54.1136 85.6302 53.9273C85.1482 53.746 84.6149 53.779 84.0303 54.0261C83.4458 54.2732 83.0463 54.6347 82.832 55.1103C82.6298 55.591 82.6378 56.0892 82.8559 56.605Z" fill="white"/>
<path d="M53.5714 52.4106C54.7619 55.2678 58.6429 61.1964 64.6429 62.0535" stroke="white"/>
<path d="M35 62.0535H65" stroke="white"/>
<path d="M53.5714 71.6963C54.7619 68.8391 58.6429 62.9106 64.6429 62.0534" stroke="white"/>
<path d="M35 62.0535H65" stroke="white"/>
</svg>
