<svg width="1030" height="460" viewBox="0 0 1030 460" fill="none" xmlns="http://www.w3.org/2000/svg">
<rect width="1030" height="460" rx="20" fill="#8EA9C4"/>
<path d="M37 378L277 221.5L657.5 331.5L1006.5 63" stroke="#124074" stroke-width="2"/>
<circle cx="185.5" cy="270.5" r="74.5" fill="#2CD9FF"/>
<path d="M61 427C61 428.182 60.7672 429.352 60.3149 430.444C59.8626 431.536 59.1997 432.528 58.364 433.364C57.5282 434.2 56.5361 434.863 55.4442 435.315C54.3522 435.767 53.1819 436 52 436C50.8181 436 49.6478 435.767 48.5558 435.315C47.4639 434.863 46.4718 434.2 45.636 433.364C44.8003 432.528 44.1374 431.536 43.6851 430.444C43.2328 429.352 43 428.182 43 427C43 424.613 43.9482 422.324 45.636 420.636C47.3239 418.948 49.6131 418 52 418C54.3869 418 56.6761 418.948 58.364 420.636C60.0518 422.324 61 424.613 61 427Z" fill="#0B2644" stroke="#0B2644" stroke-width="2" stroke-linecap="round" stroke-linejoin="round"/>
<path d="M54.752 426.168L51.555 424.036C51.4043 423.935 51.229 423.878 51.048 423.869C50.867 423.86 50.687 423.901 50.5274 423.987C50.3677 424.072 50.2342 424.2 50.1414 424.355C50.0485 424.511 49.9996 424.689 50 424.87V429.133C50 429.314 50.0491 429.492 50.1421 429.647C50.2352 429.802 50.3686 429.929 50.5282 430.015C50.6879 430.1 50.8677 430.141 51.0485 430.132C51.2293 430.123 51.4044 430.065 51.555 429.965L54.752 427.833C54.889 427.742 55.0013 427.618 55.0789 427.473C55.1566 427.328 55.1972 427.166 55.1972 427.001C55.1972 426.836 55.1566 426.674 55.0789 426.529C55.0013 426.384 54.889 426.26 54.752 426.169V426.168Z" fill="white"/>
<rect x="69" y="425" width="893" height="4" rx="2" fill="white"/>
<path d="M532.2 224.8L512.219 211.475C511.277 210.846 510.181 210.486 509.05 210.431C507.919 210.377 506.794 210.631 505.796 211.166C504.798 211.702 503.964 212.498 503.383 213.471C502.803 214.443 502.498 215.555 502.5 216.688V243.331C502.5 244.463 502.807 245.573 503.388 246.544C503.97 247.515 504.804 248.309 505.801 248.843C506.799 249.377 507.923 249.63 509.053 249.575C510.183 249.52 511.278 249.159 512.219 248.531L532.2 235.206C533.056 234.636 533.758 233.862 534.243 232.955C534.729 232.048 534.983 231.035 534.983 230.006C534.983 228.977 534.729 227.965 534.243 227.057C533.758 226.15 533.056 225.377 532.2 224.806V224.8Z" stroke="white" stroke-width="5" stroke-linecap="round" stroke-linejoin="round"/>
<path d="M571.25 230C571.25 237.387 569.795 244.701 566.968 251.526C564.141 258.351 559.998 264.551 554.775 269.775C549.551 274.998 543.351 279.141 536.526 281.968C529.701 284.795 522.387 286.25 515 286.25C507.613 286.25 500.299 284.795 493.474 281.968C486.649 279.141 480.449 274.998 475.225 269.775C470.002 264.551 465.859 258.351 463.032 251.526C460.205 244.701 458.75 237.387 458.75 230C458.75 215.082 464.676 200.774 475.225 190.225C485.774 179.676 500.082 173.75 515 173.75C529.918 173.75 544.226 179.676 554.775 190.225C565.324 200.774 571.25 215.082 571.25 230Z" stroke="white" stroke-width="5" stroke-linecap="round" stroke-linejoin="round"/>
</svg>
